<svg xmlns="http://www.w3.org/2000/svg" width="1054.058" height="820.417" viewBox="0 0 1054.058 820.417"><g transform="translate(-148.339 -108.208)"><path d="M311.72,781.242c-191.231,10.027-244.233-354.751,3.5-378.933C606.038,373.922,433.941,426.143,694.88,195.9c69.586-61.4,298.727-80.086,305.632,76.408,4.093,92.781,62.782,46.552,161.483,289.545C1317.058,943.608,985.5,974.99,846.331,909.5,589.293,788.538,543.863,769.07,311.72,781.242Z" transform="translate(0 -7.874)" fill="#f2f5f8"/><g transform="translate(148.339 143.048)"><path d="M350.881,554.1a55.951,55.951,0,0,1,92.325-5.865c22.609,29.023,10.342,73.527-24.169,86.55a56.682,56.682,0,0,1-61.466-14.7c-3.228-3.464-8.41,1.736-5.191,5.191a63.256,63.256,0,1,0,53.2-105.628c-24.519-2.663-48.372,9.8-61.042,30.749-2.452,4.052,3.894,7.746,6.338,3.7Z" transform="translate(-184.407 -218.831)" fill="#ff6369"/><circle cx="48.633" cy="48.633" r="48.633" transform="translate(167.437 315.086)" fill="#ff6369"/><g transform="translate(190.057 353.805)"><path d="M385.039,597.541v6.98h-3.688V584.693h6.458a11.322,11.322,0,0,1,3.442.466,6.643,6.643,0,0,1,2.4,1.3,5.1,5.1,0,0,1,1.4,2,7.452,7.452,0,0,1-.028,5.19,5.477,5.477,0,0,1-1.44,2.064,6.694,6.694,0,0,1-2.4,1.344,10.691,10.691,0,0,1-3.374.48Zm0-2.879h2.77a5.563,5.563,0,0,0,1.769-.254,3.3,3.3,0,0,0,1.248-.727,2.993,2.993,0,0,0,.741-1.152,4.4,4.4,0,0,0,.247-1.516,3.994,3.994,0,0,0-.247-1.44,2.853,2.853,0,0,0-.741-1.1,3.291,3.291,0,0,0-1.248-.692,5.853,5.853,0,0,0-1.769-.24h-2.77Z" transform="translate(-381.351 -584.693)" fill="#fff"/><path d="M418.944,604.521h-3.716v-8.666h-9.3v8.666h-3.716V584.693h3.716v8.529h9.3v-8.529h3.716Z" transform="translate(-385.197 -584.693)" fill="#fff"/><path d="M431.473,597.541v6.98h-3.688V584.693h6.458a11.322,11.322,0,0,1,3.442.466,6.642,6.642,0,0,1,2.4,1.3,5.1,5.1,0,0,1,1.4,2,7.451,7.451,0,0,1-.028,5.19,5.477,5.477,0,0,1-1.44,2.064,6.7,6.7,0,0,1-2.4,1.344,10.691,10.691,0,0,1-3.374.48Zm0-2.879h2.77a5.567,5.567,0,0,0,1.769-.254,3.305,3.305,0,0,0,1.248-.727A2.993,2.993,0,0,0,438,592.53a4.405,4.405,0,0,0,.247-1.516,3.994,3.994,0,0,0-.247-1.44,2.853,2.853,0,0,0-.741-1.1,3.3,3.3,0,0,0-1.248-.692,5.857,5.857,0,0,0-1.769-.24h-2.77Z" transform="translate(-389.911 -584.693)" fill="#fff"/></g></g><g transform="translate(199.401 108.208)"><path d="M549.567,534.9l-21.047,1.431a140.562,140.562,0,0,0-23.8-57.462L520.6,464.979c3.1-3.1,2.769-8.512-.741-12.022l-23.231-23.231c-3.51-3.51-8.92-3.843-12.022-.741l-13.874,15.9a140.561,140.561,0,0,0-57.458-23.811l1.409-21.051c0-4.387-4.06-7.977-9.024-7.977H372.809c-4.964,0-9.024,3.59-9.024,7.977l1.431,21.047a140.552,140.552,0,0,0-57.48,23.815l-13.874-15.9c-3.1-3.1-8.512-2.768-12.022.741l-23.231,23.231c-3.51,3.51-3.843,8.92-.741,12.022l15.886,13.893a140.56,140.56,0,0,0-23.8,57.431L228.9,534.9c-4.387,0-7.977,4.061-7.977,9.024v32.854c0,4.963,3.59,9.024,7.977,9.024l21.049-1.421a140.544,140.544,0,0,0,23.8,57.443l-15.882,13.9c-3.1,3.1-2.769,8.512.741,12.022l23.231,23.231c3.51,3.51,8.92,3.843,12.022.741l13.883-15.893a140.549,140.549,0,0,0,57.44,23.8l-1.4,21.052c0,4.387,4.06,7.977,9.024,7.977h32.854c4.964,0,9.024-3.59,9.024-7.977l-1.42-21.048a140.566,140.566,0,0,0,57.46-23.808l13.883,15.893c3.1,3.1,8.512,2.769,12.022-.741l23.231-23.231c3.51-3.51,3.843-8.919.741-12.022l-15.882-13.9A140.554,140.554,0,0,0,528.516,584.4l21.05,1.409c4.387,0,7.977-4.061,7.977-9.024V543.927C557.544,538.963,553.954,534.9,549.567,534.9ZM389.235,645.751a85.4,85.4,0,1,1,85.4-85.4A85.4,85.4,0,0,1,389.235,645.751Z" transform="translate(-212.783 -160.533)" fill="#eceff1"/><path d="M539.582,533.137l-21.046,1.431a140.567,140.567,0,0,0-23.8-57.462l15.886-13.893c3.1-3.1,2.769-8.512-.741-12.022l-23.231-23.231c-3.51-3.509-8.919-3.843-12.022-.741l-13.874,15.9a140.563,140.563,0,0,0-57.458-23.812l1.409-21.05c0-4.387-4.061-7.977-9.025-7.977H362.824c-4.963,0-9.024,3.59-9.024,7.977l1.431,21.047A140.554,140.554,0,0,0,297.75,443.12l-13.874-15.9c-3.1-3.1-8.512-2.768-12.022.741l-23.231,23.231c-3.51,3.51-3.843,8.92-.741,12.022l15.886,13.893a140.561,140.561,0,0,0-23.8,57.431l-21.052-1.4c-4.387,0-7.977,4.061-7.977,9.024v32.854c0,4.963,3.59,9.024,7.977,9.024l21.049-1.421a140.556,140.556,0,0,0,23.8,57.443l-15.882,13.9c-3.1,3.1-2.769,8.512.741,12.022l23.231,23.231c3.51,3.51,8.92,3.843,12.022.741l13.883-15.893a140.553,140.553,0,0,0,57.441,23.8l-1.4,21.052c0,4.387,4.061,7.977,9.024,7.977h32.854c4.964,0,9.025-3.59,9.025-7.977l-1.421-21.048a140.566,140.566,0,0,0,57.46-23.808l13.883,15.893c3.1,3.1,8.512,2.769,12.022-.741l23.231-23.231c3.51-3.51,3.843-8.919.741-12.022l-15.882-13.9a140.554,140.554,0,0,0,23.794-57.432l21.05,1.409c4.387,0,7.977-4.061,7.977-9.024V542.162C547.559,537.2,543.969,533.137,539.582,533.137ZM379.251,643.986a85.4,85.4,0,1,1,85.4-85.4A85.4,85.4,0,0,1,379.251,643.986Z" transform="translate(-210.942 -160.208)" fill="#8f97b9"/><path d="M406.725,271.8l-9.913.675A66.2,66.2,0,0,0,385.6,245.408l7.482-6.543a4.039,4.039,0,0,0-.348-5.662l-10.942-10.942a4.039,4.039,0,0,0-5.662-.349L369.6,229.4a66.213,66.213,0,0,0-27.062-11.215l.664-9.914a4.039,4.039,0,0,0-4.251-3.757H323.474a4.039,4.039,0,0,0-4.25,3.757l.675,9.913A66.207,66.207,0,0,0,292.826,229.4l-6.535-7.488a4.038,4.038,0,0,0-5.661.349L269.688,233.2a4.039,4.039,0,0,0-.349,5.662l7.483,6.543a66.2,66.2,0,0,0-11.209,27.049l-9.915-.66a4.039,4.039,0,0,0-3.757,4.25v15.474a4.039,4.039,0,0,0,3.757,4.251l9.913-.67a66.2,66.2,0,0,0,11.208,27.055l-7.48,6.546a4.039,4.039,0,0,0,.349,5.662l10.942,10.942a4.039,4.039,0,0,0,5.661.349l6.539-7.486a66.2,66.2,0,0,0,27.053,11.212l-.66,9.915a4.039,4.039,0,0,0,4.25,3.757h15.474a4.038,4.038,0,0,0,4.25-3.757l-.669-9.913a66.207,66.207,0,0,0,27.063-11.214l6.538,7.486a4.039,4.039,0,0,0,5.662-.349l10.942-10.942a4.039,4.039,0,0,0,.348-5.662l-7.48-6.546a66.191,66.191,0,0,0,11.206-27.049l9.915.664a4.039,4.039,0,0,0,3.757-4.251V276.047A4.039,4.039,0,0,0,406.725,271.8Zm-75.514,52.208a40.221,40.221,0,1,1,40.221-40.221A40.22,40.22,0,0,1,331.212,324.005Z" transform="translate(-218.5 -125.962)" fill="#8f97b9"/><path d="M512.04,181.271l-7.412-2.343a51.789,51.789,0,0,0-.426-22.915l7.32-2.626a3.16,3.16,0,0,0,1.365-4.223l-4.839-11.1a3.161,3.161,0,0,0-4.024-1.874l-6.9,3.586a51.778,51.778,0,0,0-16.5-15.906l3.319-7.031a3.161,3.161,0,0,0-2.021-3.952l-11.27-4.425a3.16,3.16,0,0,0-4.17,1.521l-2.343,7.412a51.8,51.8,0,0,0-22.924.427L438.6,110.5a3.159,3.159,0,0,0-4.223-1.365l-11.1,4.839A3.161,3.161,0,0,0,421.4,118l3.578,6.9a51.8,51.8,0,0,0-15.9,16.494l-7.032-3.316a3.16,3.16,0,0,0-3.952,2.021l-4.425,11.269a3.161,3.161,0,0,0,1.521,4.17l7.411,2.347a51.785,51.785,0,0,0,.426,22.908l-7.32,2.629a3.16,3.16,0,0,0-1.365,4.223l4.84,11.1a3.159,3.159,0,0,0,4.024,1.874l6.9-3.582a51.791,51.791,0,0,0,16.5,15.9l-3.316,7.033a3.16,3.16,0,0,0,2.021,3.952l11.269,4.425a3.16,3.16,0,0,0,4.17-1.521l2.347-7.411a51.8,51.8,0,0,0,22.916-.427l2.622,7.321a3.158,3.158,0,0,0,4.223,1.365l11.1-4.839a3.16,3.16,0,0,0,1.873-4.024l-3.575-6.906a51.8,51.8,0,0,0,15.9-16.495l7.031,3.318a3.161,3.161,0,0,0,3.952-2.021l4.424-11.269A3.16,3.16,0,0,0,512.04,181.271ZM442.115,197.7a31.469,31.469,0,1,1,40.793-17.79A31.469,31.469,0,0,1,442.115,197.7Z" transform="translate(-244.581 -108.208)" fill="#8f97b9"/><path d="M588.692,261.279l-4.369-2.039a32.14,32.14,0,0,0,1.586-14.127l4.714-1.024A1.959,1.959,0,0,0,591.8,241.6l-2.081-7.215a1.96,1.96,0,0,0-2.324-1.476l-4.533,1.648A32.129,32.129,0,0,0,574,223.446l2.608-4.056a1.96,1.96,0,0,0-.924-2.593l-6.573-3.63a1.96,1.96,0,0,0-2.688.6l-2.039,4.369a32.122,32.122,0,0,0-14.132-1.586l-1.019-4.714a1.96,1.96,0,0,0-2.488-1.179l-7.214,2.081a1.961,1.961,0,0,0-1.477,2.324l1.643,4.535a32.132,32.132,0,0,0-11.107,8.861l-4.057-2.606a1.96,1.96,0,0,0-2.593.924l-3.63,6.573a1.961,1.961,0,0,0,.6,2.688l4.369,2.041a32.134,32.134,0,0,0-1.586,14.123l-4.714,1.026a1.961,1.961,0,0,0-1.18,2.488l2.082,7.214A1.961,1.961,0,0,0,520.2,264.4l4.533-1.646a32.146,32.146,0,0,0,8.863,11.109l-2.606,4.057a1.959,1.959,0,0,0,.924,2.593l6.573,3.63a1.96,1.96,0,0,0,2.687-.6l2.042-4.369a32.128,32.128,0,0,0,14.127,1.586l1.022,4.714a1.96,1.96,0,0,0,2.487,1.18l7.215-2.082a1.96,1.96,0,0,0,1.476-2.324l-1.641-4.536a32.122,32.122,0,0,0,11.106-8.862l4.056,2.608a1.959,1.959,0,0,0,2.593-.924l3.63-6.573A1.959,1.959,0,0,0,588.692,261.279Zm-44.326,4.463a19.518,19.518,0,1,1,26.522-7.651A19.518,19.518,0,0,1,544.366,265.743Z" transform="translate(-267.125 -127.077)" fill="#8f97b9"/></g><g transform="translate(333.837 237.443)"><path d="M460.014,602.894V308.841c0-23.2-2.628-42.189,32.708-42.189H996.1c33.569,0,32.708,18.985,32.708,42.189V602.894Z" transform="translate(-391.286 -266.652)" fill="#37474f"/><path d="M375.8,953.04l-.038-11.844h706.225l-.016,11.844a2.7,2.7,0,0,1-2.7,2.7H378.5A2.7,2.7,0,0,1,375.8,953.04Z" transform="translate(-375.762 -391.004)" fill="#8f97b9"/><path d="M0,0H523.7V275.452H0Z" transform="translate(91.274 38.348)" fill="#fff"/><path d="M850.694,948.758l-113.662.261c-12.365.028-12.062-8.252-12.062-8.252l136.555,0S862.484,948.731,850.694,948.758Z" transform="translate(-440.138 -390.924)" fill="#fff"/><path d="M5.233,0A5.233,5.233,0,1,1,0,5.233,5.233,5.233,0,0,1,5.233,0Z" transform="translate(347.89 16.021)" fill="#fff"/><path d="M1081.945,892.828l-706.154.013,68.7-213.947h568.722Z" transform="translate(-375.767 -342.648)" fill="#e5e8f5"/><path d="M501.953,714.072H461.111l5.343-16.64H506.37Z" transform="translate(-391.496 -346.066)" fill="#bbc0d6"/><path d="M558.876,714.072H518.033l5.343-16.64h39.916Z" transform="translate(-401.99 -346.066)" fill="#bbc0d6"/><path d="M493.125,745.73H452.283l5.343-16.64h39.916Z" transform="translate(-389.869 -351.902)" fill="#bbc0d6"/><path d="M550.048,745.73H509.206l5.343-16.64h39.916Z" transform="translate(-400.362 -351.902)" fill="#bbc0d6"/><path d="M484.512,778.75H443.669l5.343-16.64h39.916Z" transform="translate(-388.281 -357.989)" fill="#bbc0d6"/><path d="M541.435,778.75H500.592l5.343-16.64h39.917Z" transform="translate(-398.774 -357.989)" fill="#bbc0d6"/><path d="M475.684,810.408H434.842l5.343-16.64H480.1Z" transform="translate(-386.653 -363.826)" fill="#bbc0d6"/><path d="M532.607,810.408H491.765l5.343-16.64h39.916Z" transform="translate(-397.147 -363.826)" fill="#bbc0d6"/><path d="M619.835,714.072H578.993l5.343-16.64h39.916Z" transform="translate(-413.227 -346.066)" fill="#bbc0d6"/><path d="M676.758,714.072H635.916l5.343-16.64h39.917Z" transform="translate(-423.721 -346.066)" fill="#bbc0d6"/><path d="M611.007,745.73H570.165l5.343-16.64h39.916Z" transform="translate(-411.6 -351.902)" fill="#bbc0d6"/><path d="M667.93,745.73H627.088l5.343-16.64h39.916Z" transform="translate(-422.094 -351.902)" fill="#bbc0d6"/><path d="M602.394,778.75H561.551l5.343-16.64h39.916Z" transform="translate(-410.012 -357.989)" fill="#bbc0d6"/><path d="M659.317,778.75H618.474l5.343-16.64h39.916Z" transform="translate(-420.506 -357.989)" fill="#bbc0d6"/><path d="M593.566,810.408H552.724l5.343-16.64h39.916Z" transform="translate(-408.385 -363.826)" fill="#bbc0d6"/><path d="M650.489,810.408H609.647l5.343-16.64h39.916Z" transform="translate(-418.878 -363.826)" fill="#bbc0d6"/><path d="M1098.661,714.072H1139.5l-5.343-16.64h-39.916Z" transform="translate(-508.214 -346.066)" fill="#bbc0d6"/><path d="M1041.738,714.072h40.842l-5.343-16.64h-39.917Z" transform="translate(-497.72 -346.066)" fill="#bbc0d6"/><path d="M1107.489,745.73h40.842l-5.343-16.64h-39.917Z" transform="translate(-509.841 -351.902)" fill="#bbc0d6"/><path d="M1050.566,745.73h40.842l-5.343-16.64h-39.916Z" transform="translate(-499.347 -351.902)" fill="#bbc0d6"/><path d="M1116.1,778.75h40.842l-5.343-16.64h-39.916Z" transform="translate(-511.429 -357.989)" fill="#bbc0d6"/><path d="M1059.18,778.75h40.842l-5.343-16.64h-39.916Z" transform="translate(-500.935 -357.989)" fill="#bbc0d6"/><path d="M1124.93,810.408h40.842l-5.343-16.64h-39.916Z" transform="translate(-513.056 -363.826)" fill="#bbc0d6"/><path d="M1068.007,810.408h40.842l-5.343-16.64H1063.59Z" transform="translate(-502.563 -363.826)" fill="#bbc0d6"/><path d="M980.779,714.072h40.842l-5.343-16.64H976.362Z" transform="translate(-486.482 -346.066)" fill="#bbc0d6"/><path d="M919.023,714.072h40.842l-5.343-16.64H914.605Z" transform="translate(-475.097 -346.066)" fill="#bbc0d6"/><path d="M989.607,745.73h40.842l-5.343-16.64H985.19Z" transform="translate(-488.109 -351.902)" fill="#bbc0d6"/><path d="M927.85,745.73h40.842l-5.343-16.64H923.433Z" transform="translate(-476.725 -351.902)" fill="#bbc0d6"/><path d="M998.22,778.75h40.842l-5.343-16.64H993.8Z" transform="translate(-489.697 -357.989)" fill="#bbc0d6"/><path d="M936.464,778.75h40.842l-5.343-16.64H932.047Z" transform="translate(-478.313 -357.989)" fill="#bbc0d6"/><path d="M1007.048,810.408h40.842l-5.343-16.64h-39.916Z" transform="translate(-491.325 -363.826)" fill="#bbc0d6"/><path d="M945.292,810.408h40.842l-5.343-16.64H940.874Z" transform="translate(-479.94 -363.826)" fill="#bbc0d6"/><path d="M740.572,714.072H699.73l5.343-16.64H744.99Z" transform="translate(-435.485 -346.066)" fill="#bbc0d6"/><path d="M797.5,714.072H756.653L762,697.433h39.916Z" transform="translate(-445.979 -346.066)" fill="#bbc0d6"/><path d="M731.745,745.73H690.9l5.343-16.64h39.916Z" transform="translate(-433.858 -351.902)" fill="#bbc0d6"/><path d="M788.668,745.73H747.825l5.343-16.64h39.916Z" transform="translate(-444.352 -351.902)" fill="#bbc0d6"/><path d="M723.131,778.75H682.289l5.343-16.64h39.917Z" transform="translate(-432.27 -357.989)" fill="#bbc0d6"/><path d="M780.054,778.75H739.212l5.343-16.64h39.916Z" transform="translate(-442.764 -357.989)" fill="#bbc0d6"/><path d="M851.978,714.072H817.612l4.5-16.64h33.587Z" transform="translate(-457.217 -346.066)" fill="#bbc0d6"/><path d="M904.148,714.072H869.7l3.885-16.64H900.4Z" transform="translate(-466.82 -346.066)" fill="#bbc0d6"/><path d="M849.627,745.73H808.784l5.343-16.64h39.916Z" transform="translate(-455.589 -351.902)" fill="#bbc0d6"/><path d="M909.019,745.73H865.707l5.343-16.64h33.042Z" transform="translate(-466.083 -351.902)" fill="#bbc0d6"/><path d="M841.013,778.75H800.171l5.343-16.64h39.916Z" transform="translate(-454.001 -357.989)" fill="#bbc0d6"/><path d="M913.038,778.75H857.094l6.795-16.64h44.993Z" transform="translate(-464.495 -357.989)" fill="#bbc0d6"/><path d="M852.582,793.769H691.293l-7.252,16.64H886.46l-3.76-16.639Z" transform="translate(-432.593 -363.826)" fill="#bbc0d6"/><path d="M894.794,907.21l-224.393,0,15.324-73.568H878.054Z" transform="translate(-430.078 -371.177)" fill="#bbc0d6"/><g transform="translate(102.673 54.499)"><path d="M3.073,0H97.761a3.073,3.073,0,1,1,0,6.147H3.073A3.073,3.073,0,0,1,3.073,0Z" transform="translate(50.675)" fill="#bbc0d6"/><path d="M3.073,0h0a3.073,3.073,0,0,1,0,6.147h0A3.073,3.073,0,0,1,3.073,0Z" fill="#e5e8f5"/><path d="M3.073,0h0a3.073,3.073,0,0,1,0,6.147h0A3.073,3.073,0,0,1,3.073,0Z" transform="translate(0 8.414)" fill="#e5e8f5"/><path d="M3.073,0h0a3.073,3.073,0,0,1,0,6.147h0A3.073,3.073,0,0,1,3.073,0Z" transform="translate(0 32.052)" fill="#e5e8f5"/><path d="M3.073,0h0a3.073,3.073,0,0,1,0,6.147h0A3.073,3.073,0,0,1,3.073,0Z" transform="translate(0 44.663)" fill="#e5e8f5"/><path d="M3.073,0h0a3.073,3.073,0,0,1,0,6.147h0A3.073,3.073,0,0,1,3.073,0Z" transform="translate(0 57.167)" fill="#e5e8f5"/><path d="M3.073,0h0a3.073,3.073,0,0,1,0,6.147h0A3.073,3.073,0,0,1,3.073,0Z" transform="translate(0 66.786)" fill="#e5e8f5"/><path d="M3.073,0h0a3.073,3.073,0,0,1,0,6.147h0A3.073,3.073,0,0,1,3.073,0Z" transform="translate(0 87.306)" fill="#e5e8f5"/><path d="M3.073,0h0a3.073,3.073,0,0,1,0,6.147h0A3.073,3.073,0,0,1,3.073,0Z" transform="translate(0 99.703)" fill="#e5e8f5"/><path d="M3.073,0h0a3.073,3.073,0,0,1,0,6.147h0A3.073,3.073,0,0,1,3.073,0Z" transform="translate(0 111.998)" fill="#e5e8f5"/><path d="M3.073,0h0a3.073,3.073,0,0,1,0,6.147h0A3.073,3.073,0,0,1,3.073,0Z" transform="translate(0 121.528)" fill="#e5e8f5"/><path d="M3.073,0h0a3.073,3.073,0,0,1,0,6.147h0A3.073,3.073,0,0,1,3.073,0Z" transform="translate(0 143.208)" fill="#e5e8f5"/><path d="M3.073,0h0a3.073,3.073,0,0,1,0,6.147h0A3.073,3.073,0,0,1,3.073,0Z" transform="translate(0 153.03)" fill="#e5e8f5"/><path d="M3.073,0h0a3.073,3.073,0,0,1,0,6.147h0A3.073,3.073,0,0,1,3.073,0Z" transform="translate(0 175.552)" fill="#e5e8f5"/><path d="M3.073,0h0a3.073,3.073,0,0,1,0,6.147h0A3.073,3.073,0,0,1,3.073,0Z" transform="translate(0 187.792)" fill="#e5e8f5"/><path d="M3.073,0h0a3.073,3.073,0,0,1,0,6.147h0A3.073,3.073,0,0,1,3.073,0Z" transform="translate(0 200.13)" fill="#e5e8f5"/><path d="M3.073,0h0a3.073,3.073,0,0,1,0,6.147h0A3.073,3.073,0,0,1,3.073,0Z" transform="translate(0 210.314)" fill="#e5e8f5"/><path d="M3.073,0h0a3.073,3.073,0,0,1,0,6.147h0A3.073,3.073,0,0,1,3.073,0Z" transform="translate(0 230.363)" fill="#e5e8f5"/><path d="M3.073,0h0a3.073,3.073,0,0,1,0,6.147h0A3.073,3.073,0,0,1,3.073,0Z" transform="translate(0 242.832)" fill="#e5e8f5"/><path d="M3.073,0h80.81a3.073,3.073,0,1,1,0,6.147H3.073A3.073,3.073,0,0,1,0,3.073H0A3.073,3.073,0,0,1,3.073,0Z" transform="translate(15.869 9.096)" fill="#f9b25f"/><path d="M3.073,0H143.812a3.073,3.073,0,1,1,0,6.147H3.073A3.073,3.073,0,0,1,3.073,0Z" transform="translate(107.635 9.096)" fill="#bbc0d6"/><path d="M3.073,0H53.515a3.073,3.073,0,1,1,0,6.147H3.073A3.073,3.073,0,0,1,3.073,0Z" transform="translate(14.4 32.261)" fill="#e5e8f5"/><path d="M3.073,0H89.629a3.073,3.073,0,1,1,0,6.147H3.073A3.073,3.073,0,0,1,3.073,0Z" transform="translate(25.106 44.982)" fill="#f9b25f"/><path d="M3.073,0H147.31a3.073,3.073,0,1,1,0,6.147H3.073A3.073,3.073,0,0,1,3.073,0Z" transform="translate(43.271 57.207)" fill="#bbc0d6"/><path d="M3.073,0H88.318a3.073,3.073,0,1,1,0,6.147H3.073A3.073,3.073,0,0,1,3.073,0Z" transform="translate(210.884 57.207)" fill="#bbc0d6"/><path d="M3.073,0H180.217a3.073,3.073,0,1,1,0,6.147H3.073A3.073,3.073,0,0,1,3.073,0Z" transform="translate(30.724 67.709)" fill="#bbc0d6"/><path d="M3.073,0H31.332a3.073,3.073,0,0,1,0,6.147H3.073A3.073,3.073,0,0,1,3.073,0Z" transform="translate(225.492 67.709)" fill="#bbc0d6"/><path d="M3.073,0H97.761a3.073,3.073,0,1,1,0,6.147H3.073A3.073,3.073,0,0,1,3.073,0Z" transform="translate(172.466)" fill="#bbc0d6"/><path d="M3.073,0h80.81a3.073,3.073,0,1,1,0,6.147H3.073A3.073,3.073,0,0,1,0,3.073H0A3.073,3.073,0,0,1,3.073,0Z" transform="translate(264.363 9.096)" fill="#bbc0d6"/><path d="M3.073,0H143.812a3.073,3.073,0,1,1,0,6.147H3.073A3.073,3.073,0,0,1,3.073,0Z" transform="translate(353.182 30.704)" fill="#bbc0d6"/><path d="M3.073,0H53.515a3.073,3.073,0,1,1,0,6.147H3.073A3.073,3.073,0,0,1,3.073,0Z" transform="translate(284.503 32.261)" fill="#bbc0d6"/><path d="M3.073,0H131.386a3.073,3.073,0,1,1,0,6.147H3.073A3.073,3.073,0,0,1,3.073,0Z" transform="translate(272.535 70.519)" fill="#bbc0d6"/><path d="M3.073,0H147.31a3.073,3.073,0,1,1,0,6.147H3.073A3.073,3.073,0,0,1,3.073,0Z" transform="translate(313.373 57.207)" fill="#bbc0d6"/><path d="M3.073,0H180.217a3.073,3.073,0,1,1,0,6.147H3.073A3.073,3.073,0,0,1,3.073,0Z" transform="translate(81.798 31.368)" fill="#8f97b9"/><path d="M3.073,0H53.515a3.073,3.073,0,1,1,0,6.147H3.073A3.073,3.073,0,0,1,3.073,0Z" transform="translate(14.4 87.416)" fill="#e5e8f5"/><path d="M3.073,0H89.629a3.073,3.073,0,1,1,0,6.147H3.073A3.073,3.073,0,0,1,0,3.073H0A3.073,3.073,0,0,1,3.073,0Z" transform="translate(25.106 100.137)" fill="#f9b25f"/><path d="M3.073,0H147.31a3.073,3.073,0,1,1,0,6.147H3.073A3.073,3.073,0,0,1,3.073,0Z" transform="translate(43.271 112.362)" fill="#bbc0d6"/><path d="M3.073,0H180.217a3.073,3.073,0,1,1,0,6.147H3.073A3.073,3.073,0,0,1,3.073,0Z" transform="translate(30.724 122.864)" fill="#bbc0d6"/><path d="M3.073,0H97.761a3.073,3.073,0,0,1,3.073,3.073h0a3.073,3.073,0,0,1-3.073,3.073H3.073A3.073,3.073,0,0,1,3.073,0Z" transform="translate(50.675 143.51)" fill="#bbc0d6"/><path d="M3.073,0h80.81a3.073,3.073,0,1,1,0,6.147H3.073A3.073,3.073,0,0,1,0,3.073H0A3.073,3.073,0,0,1,3.073,0Z" transform="translate(15.869 152.606)" fill="#f9b25f"/><path d="M3.073,0H53.515a3.073,3.073,0,1,1,0,6.147H3.073A3.073,3.073,0,0,1,3.073,0Z" transform="translate(14.4 175.77)" fill="#e5e8f5"/><path d="M3.073,0H131.386a3.073,3.073,0,0,1,3.073,3.073h0a3.073,3.073,0,0,1-3.073,3.073H3.073A3.073,3.073,0,0,1,3.073,0Z" transform="translate(127.171 188.491)" fill="#bbc0d6"/><path d="M3.073,0H89.629A3.073,3.073,0,0,1,92.7,3.073h0a3.073,3.073,0,0,1-3.073,3.073H3.073A3.073,3.073,0,0,1,3.073,0Z" transform="translate(25.106 188.491)" fill="#f9b25f"/><path d="M3.073,0H147.31a3.073,3.073,0,1,1,0,6.147H3.073A3.073,3.073,0,0,1,3.073,0Z" transform="translate(43.271 200.717)" fill="#bbc0d6"/><path d="M3.073,0H88.318a3.073,3.073,0,1,1,0,6.147H3.073A3.073,3.073,0,0,1,3.073,0Z" transform="translate(210.884 200.717)" fill="#bbc0d6"/><path d="M3.073,0H180.217a3.073,3.073,0,1,1,0,6.147H3.073A3.073,3.073,0,0,1,3.073,0Z" transform="translate(30.724 211.219)" fill="#bbc0d6"/><path d="M3.073,0H31.332a3.073,3.073,0,0,1,0,6.147H3.073A3.073,3.073,0,0,1,3.073,0Z" transform="translate(225.492 211.219)" fill="#8f97b9"/><path d="M3.073,0H53.515a3.073,3.073,0,1,1,0,6.147H3.073A3.073,3.073,0,0,1,3.073,0Z" transform="translate(14.4 230.925)" fill="#e5e8f5"/><path d="M3.073,0H131.386a3.073,3.073,0,1,1,0,6.147H3.073A3.073,3.073,0,0,1,3.073,0Z" transform="translate(127.171 243.646)" fill="#bbc0d6"/><path d="M3.073,0H89.629a3.073,3.073,0,1,1,0,6.147H3.073A3.073,3.073,0,0,1,3.073,0Z" transform="translate(25.106 243.646)" fill="#f9b25f"/></g></g><g transform="translate(536.74 124.872)"><path d="M1294.016,830.546a77.362,77.362,0,1,1,75.986-51.5c-2.028,5.979,7.423,8.545,9.438,2.6a87.1,87.1,0,1,0-85.424,58.684c6.3.286,6.283-9.5,0-9.788Z" transform="translate(-732.461 -227.727)" fill="#a25d91"/><circle cx="67.116" cy="67.116" r="67.116" transform="translate(497.501 458.392)" fill="#a25d91"/><g transform="translate(513.427 511.826)"><path d="M1277.082,783.509h-5.129v-11.96h-12.83v11.96h-5.129V756.145h5.129v11.771h12.83V756.145h5.129Z" transform="translate(-1253.994 -756.145)" fill="#fff"/><path d="M1307.836,756.145v4.183H1299.6v23.182h-5.09V760.328h-8.27v-4.183Z" transform="translate(-1259.939 -756.145)" fill="#fff"/><path d="M1331.018,773.413q.274.653.54,1.315.264-.68.548-1.343t.606-1.268l8.1-15.158a2.063,2.063,0,0,1,.312-.454.969.969,0,0,1,.359-.246,1.638,1.638,0,0,1,.445-.095q.245-.018.586-.019h3.842v27.364h-4.485V765.834q0-.492.029-1.079t.085-1.192l-8.27,15.518a2.184,2.184,0,0,1-.738.823,1.908,1.908,0,0,1-1.06.294h-.7a1.912,1.912,0,0,1-1.06-.294,2.191,2.191,0,0,1-.738-.823l-8.383-15.575c.051.417.086.823.1,1.221s.029.766.029,1.107v17.675h-4.485V756.145h3.842c.228,0,.423.007.587.019a1.638,1.638,0,0,1,.445.095,1.058,1.058,0,0,1,.369.246,1.919,1.919,0,0,1,.321.454l8.175,15.2Q1330.744,772.761,1331.018,773.413Z" transform="translate(-1265.551 -756.145)" fill="#fff"/><path d="M1364.927,779.308h10.958v4.2h-16.048V756.145h5.091Z" transform="translate(-1273.506 -756.145)" fill="#fff"/></g><path d="M1081.725,514.854c-10.437-27.176-5.6-58.369,13.987-80.261a77.361,77.361,0,0,1,130.476,77.926c-10.133,28.156-36.66,48.045-66.348,50.576-6.229.531-6.286,10.324,0,9.788,29.983-2.556,57.173-19.913,71.044-46.846a87.125,87.125,0,0,0-135.426-105.011c-26.872,23.872-36.013,62.993-23.171,96.43,2.236,5.82,11.7,3.293,9.438-2.6Z" transform="translate(-706.012 -178.47)" fill="#8765db"/><circle cx="67.116" cy="67.116" r="67.116" transform="translate(380.383 240.29)" fill="#8765db"/><g transform="translate(402.999 293.572)"><path d="M1131.664,506.2a14.2,14.2,0,0,1-.567,4.163,8.651,8.651,0,0,1-1.694,3.161,7.394,7.394,0,0,1-2.81,2.006,10.154,10.154,0,0,1-3.918.7,16.243,16.243,0,0,1-2.006-.122,18.26,18.26,0,0,1-2.063-.388l.265-3.028a1.009,1.009,0,0,1,.312-.672,1.141,1.141,0,0,1,.805-.255,3.6,3.6,0,0,1,.842.132,6.22,6.22,0,0,0,3.227-.179,3.228,3.228,0,0,0,1.391-.993,4.583,4.583,0,0,0,.843-1.77,10.59,10.59,0,0,0,.283-2.639V488.563h5.09Z" transform="translate(-1118.607 -488.563)" fill="#fff"/><path d="M1163.638,515.927H1159.7a1.719,1.719,0,0,1-1.088-.331,1.881,1.881,0,0,1-.614-.823l-2.045-5.582h-11.335l-2.044,5.582a1.779,1.779,0,0,1-.6.794,1.673,1.673,0,0,1-1.087.36h-3.956l10.749-27.364h5.2Zm-17.713-10.333h8.724l-3.331-9.1q-.226-.606-.5-1.429t-.538-1.789q-.267.965-.521,1.8t-.5,1.458Z" transform="translate(-1121.986 -488.563)" fill="#fff"/><path d="M1165.915,488.563h4.106a1.714,1.714,0,0,1,1.079.322,1.97,1.97,0,0,1,.625.832l6.434,16.691q.322.814.615,1.788t.559,2.054a23.331,23.331,0,0,1,1.079-3.842l6.414-16.691a1.98,1.98,0,0,1,.605-.794,1.638,1.638,0,0,1,1.079-.36h4.107l-11.051,27.364h-4.6Z" transform="translate(-1127.328 -488.563)" fill="#fff"/><path d="M1221.688,515.927h-3.936a1.719,1.719,0,0,1-1.088-.331,1.879,1.879,0,0,1-.614-.823L1214,509.191h-11.335l-2.044,5.582a1.783,1.783,0,0,1-.6.794,1.677,1.677,0,0,1-1.088.36h-3.956l10.75-27.364h5.2Zm-17.713-10.333h8.724l-3.331-9.1q-.227-.606-.5-1.429t-.539-1.789q-.266.965-.521,1.8t-.5,1.458Z" transform="translate(-1132.688 -488.563)" fill="#fff"/></g><path d="M691.412,135.99a56.181,56.181,0,1,1-40.255,98.562c-17.806-15.553-23.721-40.329-15.771-62.427,1.6-4.453-5.489-6.371-7.079-1.951a63.492,63.492,0,1,0,63.105-41.525c-4.715-.328-4.695,7.015,0,7.341Z" transform="translate(-624.525 -128.639)" fill="#8fba73"/><circle cx="48.838" cy="48.838" r="48.838" transform="translate(14.55 14.631)" fill="#8fba73"/><g transform="translate(28.528 48.073)"><path d="M680.751,209.675a.994.994,0,0,1,.749.334l2.09,2.267a11.474,11.474,0,0,1-4.268,3.293,14.71,14.71,0,0,1-6.081,1.143,14.371,14.371,0,0,1-5.707-1.084,12.578,12.578,0,0,1-4.327-3.015,13.2,13.2,0,0,1-2.75-4.613,17.3,17.3,0,0,1-.957-5.855,15.761,15.761,0,0,1,1.065-5.884,13.288,13.288,0,0,1,7.619-7.609,15.893,15.893,0,0,1,5.943-1.074,14.034,14.034,0,0,1,5.55,1.015,12.969,12.969,0,0,1,4.07,2.691l-1.774,2.464a1.619,1.619,0,0,1-.4.414,1.142,1.142,0,0,1-.68.178,1.549,1.549,0,0,1-.927-.355,11.671,11.671,0,0,0-1.2-.769,9.83,9.83,0,0,0-1.843-.768,10.631,10.631,0,0,0-6.525.345,8.2,8.2,0,0,0-2.9,2,9.191,9.191,0,0,0-1.892,3.163,12.151,12.151,0,0,0-.68,4.189,12.485,12.485,0,0,0,.68,4.278,9.4,9.4,0,0,0,1.843,3.154,7.866,7.866,0,0,0,2.741,1.961,8.463,8.463,0,0,0,3.39.68,14.73,14.73,0,0,0,1.962-.118,8.253,8.253,0,0,0,1.617-.374,7.228,7.228,0,0,0,1.4-.661,8.745,8.745,0,0,0,1.311-1,1.883,1.883,0,0,1,.414-.286A1.05,1.05,0,0,1,680.751,209.675Z" transform="translate(-659.5 -187.577)" fill="#fff"/><path d="M704.182,194.562v8.081h7.668v3.608h-7.668v8.121h-3.943v-8.121H692.61v-3.608h7.629v-8.081Z" transform="translate(-665.604 -188.865)" fill="#fff"/><path d="M732.216,194.562v8.081h7.667v3.608h-7.667v8.121h-3.943v-8.121h-7.629v-3.608h7.629v-8.081Z" transform="translate(-670.772 -188.865)" fill="#fff"/></g></g></g></svg>